<svg width="500" height="500" viewBox="0 0 500 500" xmlns="http://www.w3.org/2000/svg" fill-rule="evenodd" clip-rule="evenodd" stroke-linejoin="round" stroke-miterlimit="2"><path d="M250 498.606c-6.85 0-13.246-1.827-19.184-5.024l-60.753-36.086c-9.135-5.025-4.568-6.852-1.827-7.765 12.333-4.111 14.616-5.025 27.408-12.335 1.37-.913 3.197-.457 4.567.457l46.592 27.864c1.827.914 4.111.914 5.481 0l182.257-105.516c1.828-.914 2.741-2.74 2.741-5.025V144.598c0-2.284-.913-4.11-2.74-5.024L252.283 34.512c-1.827-.914-4.11-.914-5.48 0L64.545 139.574c-1.827.913-2.74 3.197-2.74 5.024v210.578c0 1.827.913 4.111 2.74 5.025l49.79 28.776c26.95 13.705 43.85-2.284 43.85-18.27V162.868c0-2.74 2.285-5.482 5.482-5.482h23.297c2.74 0 5.481 2.284 5.481 5.482v207.837c0 36.087-19.643 57.098-53.902 57.098-10.505 0-18.727 0-42.022-11.42l-47.964-27.407c-11.876-6.851-19.185-19.64-19.185-33.344V145.055c0-13.705 7.309-26.494 19.185-33.346L230.816 6.192c11.42-6.396 26.95-6.396 38.369 0L451.444 111.71c11.876 6.852 19.184 19.641 19.184 33.346v210.578c0 13.703-7.308 26.493-19.184 33.344l-182.26 105.518c-5.937 2.741-12.789 4.111-19.183 4.111zm56.185-144.802c-79.938 0-96.382-36.541-96.382-67.603 0-2.74 2.284-5.481 5.482-5.481h23.753c2.74 0 5.025 1.827 5.025 4.567 3.654 24.21 14.16 36.087 62.578 36.087 38.37 0 54.816-8.679 54.816-29.235 0-11.876-4.57-20.555-64.408-26.494-49.789-5.025-80.85-15.987-80.85-55.728 0-37 31.061-58.924 83.134-58.924 58.468 0 87.246 20.097 90.9 63.949 0 1.37-.456 2.74-1.37 4.11-.914.914-2.284 1.828-3.654 1.828h-23.752c-2.286 0-4.57-1.827-5.026-4.111-5.481-25.122-19.641-33.344-57.098-33.344-42.024 0-47.049 14.616-47.049 25.579 0 13.248 5.938 17.359 62.58 24.667 56.185 7.308 82.678 17.814 82.678 57.098-.457 40.197-33.344 63.035-91.357 63.035z" fill="#539e43" fill-rule="nonzero"/></svg>